<svg width="256" height="256" viewBox="0 0 256 256" fill="none" xmlns="http://www.w3.org/2000/svg">
<g clip-path="url(#clip0_6083_2)">
<rect width="256" height="256" fill="#4F58E9"/>
<path d="M134.168 190V70.855H160.532V122.738H160.87L209.711 70.855H240.976L180.981 133.216L181.15 122.4L244.694 190H212.415L160.87 135.582H160.532V190H134.168Z" fill="white"/>
<path d="M74.797 191.859C62.0657 191.859 51.137 189.324 42.011 184.254C32.885 179.184 25.8433 172.086 20.886 162.96C16.0413 153.721 13.619 142.849 13.619 130.343C13.619 117.837 16.0413 107.021 20.886 97.895C25.8433 88.769 32.885 81.671 42.011 76.601C51.137 71.531 62.0657 68.996 74.797 68.996C83.0217 68.996 90.514 70.179 97.274 72.545C104.034 74.7983 109.78 78.122 114.512 82.516L106.231 103.303C101.048 99.247 96.091 96.374 91.359 94.684C86.7397 92.994 81.5007 92.149 75.642 92.149C64.488 92.149 55.9253 95.4727 49.954 102.12C44.0953 108.655 41.166 118.062 41.166 130.343C41.166 142.624 44.0953 152.088 49.954 158.735C55.9253 165.382 64.488 168.706 75.642 168.706C81.5007 168.706 86.7397 167.861 91.359 166.171C96.091 164.481 101.048 161.608 106.231 157.552L114.512 178.339C109.78 182.62 104.034 185.944 97.274 188.31C90.514 190.676 83.0217 191.859 74.797 191.859Z" fill="white"/>
<path d="M75.797 191.859C63.0657 191.859 52.137 189.324 43.011 184.254C33.885 179.184 26.8433 172.086 21.886 162.96C17.0413 153.721 14.619 142.849 14.619 130.343C14.619 117.837 17.0413 107.021 21.886 97.895C26.8433 88.769 33.885 81.671 43.011 76.601C52.137 71.531 63.0657 68.996 75.797 68.996C84.0217 68.996 91.514 70.179 98.274 72.545C105.034 74.7983 110.78 78.122 115.512 82.516L107.231 103.303C102.048 99.247 97.091 96.374 92.359 94.684C87.7397 92.994 82.5007 92.149 76.642 92.149C65.488 92.149 56.9253 95.4727 50.954 102.12C45.0953 108.655 42.166 118.062 42.166 130.343C42.166 142.624 45.0953 152.088 50.954 158.735C56.9253 165.382 65.488 168.706 76.642 168.706C82.5007 168.706 87.7397 167.861 92.359 166.171C97.091 164.481 102.048 161.608 107.231 157.552L115.512 178.339C110.78 182.62 105.034 185.944 98.274 188.31C91.514 190.676 84.0217 191.859 75.797 191.859Z" fill="white"/>
</g>
<defs>
<clipPath id="clip0_6083_2">
<rect width="256" height="256" rx="20" fill="white"/>
</clipPath>
</defs>
</svg>
